<?xml version="1.0" encoding="UTF-8"?>
<!DOCTYPE svg PUBLIC "-//W3C//DTD SVG 1.1//EN" "http://www.w3.org/Graphics/SVG/1.1/DTD/svg11.dtd">
<!-- Creator: CorelDRAW X7 -->
<svg xmlns="http://www.w3.org/2000/svg" xml:space="preserve" width="123.182mm" height="33.7084mm" version="1.1" style="shape-rendering:geometricPrecision; text-rendering:geometricPrecision; image-rendering:optimizeQuality; fill-rule:evenodd; clip-rule:evenodd"
viewBox="0 0 13060 3574"
 xmlns:xlink="http://www.w3.org/1999/xlink">
 <defs>
  <style type="text/css">
   <![CDATA[
    .fil0 {fill:#2B2A29}
    .fil4 {fill:#2B2A29}
    .fil1 {fill:#CC2528}
    .fil2 {fill:#2B2A29;fill-rule:nonzero}
    .fil3 {fill:#CC2528;fill-rule:nonzero}
   ]]>
  </style>
 </defs>
 <g id="Layer_x0020_1">
  <metadata id="CorelCorpID_0Corel-Layer"/>
  <g id="_1808890755952">
   <path class="fil0" d="M1345 3180c441,0 799,34 799,75 0,42 -358,76 -799,76 -442,0 -799,-34 -799,-76 0,-41 357,-75 799,-75z"/>
   <path class="fil0" d="M892 367c-258,11 -595,360 -753,778 -158,419 -77,748 181,737 258,-12 595,-361 753,-779 158,-418 77,-748 -181,-736zm-71 187c-194,8 -448,271 -567,586 -119,315 -58,564 137,555 194,-9 448,-272 567,-587 119,-315 58,-563 -137,-554z"/>
   <path class="fil1" d="M727 804c-109,5 -252,152 -318,329 -67,177 -33,316 76,311 109,-5 252,-152 318,-329 67,-176 33,-316 -76,-311z"/>
   <polygon class="fil0" points="1303,1579 1955,1952 2606,2325 1955,2699 1303,3072 651,2699 0,2325 651,1952 "/>
   <polygon class="fil1" points="2638,752 2648,1475 2658,2199 2006,1823 1354,1447 1343,724 1333,0 1986,376 "/>
   <path class="fil2" d="M3433 1988l78 0c155,0 236,-92 236,-250l0 -252 209 0c491,0 751,-204 751,-617 0,-416 -271,-631 -767,-631l-459 0c-177,0 -273,105 -273,298l0 1202c0,164 83,250 225,250zm306 -1345l188 0c169,0 257,81 257,226 0,145 -86,225 -249,225l-196 0 0 -451zm1465 1358c193,0 357,-80 445,-217 41,142 142,214 290,214 99,0 199,-32 199,-59l0 -756c0,-381 -210,-566 -687,-566 -440,0 -639,131 -639,340 0,228 338,210 341,202 35,-81 102,-177 268,-177 124,0 196,61 207,177l-51 0c-566,2 -816,147 -816,450 0,231 175,392 443,392zm201 -314c-94,0 -156,-45 -156,-123 0,-102 110,-145 317,-150l64 0 0 45c0,134 -88,228 -225,228zm1607 325c405,0 566,-220 566,-352 0,-217 -265,-244 -273,-225 -40,105 -129,177 -263,177 -164,0 -277,-126 -277,-300 0,-170 116,-293 277,-293 145,0 223,73 263,175 8,18 273,-17 273,-221 0,-131 -144,-354 -566,-354 -416,0 -708,290 -708,693 0,415 284,700 708,700zm958 -24l54 0c131,0 228,-65 228,-250l0 -314 287 416c75,116 185,156 279,156 153,0 298,-129 284,-156l-391 -550 357 -507c13,-30 -124,-158 -279,-158 -89,0 -199,40 -271,155l-266 400 0 -703c0,-314 -169,-392 -317,-392 -104,0 -198,41 -198,59l0 1594c0,191 96,250 233,250zm1503 0l78 0c155,0 236,-92 236,-250l0 -252 209 0c491,0 751,-204 751,-617 0,-416 -271,-631 -767,-631l-459 0c-177,0 -274,105 -274,298l0 1202c0,164 84,250 226,250zm306 -1345l187 0c170,0 258,81 258,226 0,145 -86,225 -249,225l-196 0 0 -451zm1381 -150c167,0 271,-94 271,-244 0,-150 -107,-241 -279,-241 -166,0 -271,93 -271,241 0,150 108,244 279,244zm-26 1495l53 0c132,0 226,-65 226,-250l0 -861c0,-191 -92,-247 -231,-247l-54 0c-131,0 -230,62 -230,247l0 861c0,191 96,250 236,250zm721 -1358c-104,0 -198,40 -198,59l0 1049c0,191 96,250 233,250l54 0c131,0 228,-62 228,-250l0 -596c40,-64 110,-107 201,-107 108,0 172,75 172,196l0 507c0,191 97,250 236,250l51 0c134,0 228,-65 228,-250l0 -596c0,-276 -126,-525 -472,-525 -215,0 -344,102 -437,244 -49,-180 -178,-231 -296,-231z"/>
   <path class="fil3" d="M4907 3253c150,0 266,-169 266,-355 0,-162 -90,-240 -179,-240 -91,0 -152,52 -194,110 -22,-53 -73,-96 -119,-96 -14,0 -22,8 -22,22 0,16 14,32 14,104 0,414 -50,527 -50,657 0,67 39,119 138,119 41,0 59,-19 59,-36 0,-16 -28,-22 -28,-155 0,-66 0,-110 2,-163 26,20 64,33 113,33zm-63 -202c0,-23 0,-31 -16,-31 -3,0 -9,1 -9,1 16,-137 72,-231 135,-231 51,0 72,58 72,145 0,107 -49,224 -121,224 -33,0 -61,-36 -61,-108zm869 204c34,0 65,-21 65,-44 0,-19 -78,-18 -78,-158 0,-66 14,-115 14,-155 0,-28 -8,-52 -34,-60 8,-14 12,-30 12,-48 0,-72 -64,-132 -166,-132 -172,0 -295,183 -295,371 0,160 100,224 187,224 71,0 124,-30 157,-78 20,45 62,80 138,80zm-251 -118c-45,0 -80,-53 -80,-145 0,-118 58,-237 124,-237 30,0 44,21 44,49 0,37 -8,42 -8,56 0,16 11,27 28,31 -8,173 -50,246 -108,246zm615 -372c57,0 69,43 80,108 2,9 8,14 19,14 47,0 105,-32 105,-97 0,-71 -68,-132 -179,-132 -144,0 -300,135 -300,340 0,145 83,260 247,260 174,0 222,-133 222,-173 0,-53 -28,-51 -28,-51 -11,0 -45,114 -155,114 -75,0 -127,-77 -127,-174 0,-125 57,-209 116,-209zm662 64c0,44 -40,83 -90,108 -38,19 -47,36 -47,73 0,72 67,249 198,249 79,0 132,-72 132,-111 0,-22 -6,-30 -16,-30 -4,0 -12,5 -25,5 -62,0 -130,-91 -150,-156 67,-33 139,-112 139,-196 0,-88 -53,-119 -114,-119 -99,0 -213,117 -282,296 27,-190 86,-376 86,-510 0,-85 -51,-144 -164,-144 -31,0 -50,10 -50,28 0,25 30,73 30,236 0,218 -40,399 -40,534 0,116 74,163 124,163 39,0 49,-19 53,-82 14,-203 105,-380 180,-380 21,0 36,15 36,36zm484 -340c0,-59 -41,-94 -95,-94 -69,0 -115,58 -115,122 0,46 25,83 91,83 58,0 119,-45 119,-111zm-225 553c0,153 62,213 150,213 42,0 73,-21 73,-44 0,-30 -70,-13 -70,-160 0,-80 33,-217 33,-275 0,-49 -36,-118 -138,-118 -31,0 -53,11 -53,27 0,11 22,20 22,108 0,59 -17,189 -17,249zm336 -370c-19,0 -36,7 -36,22 0,25 16,44 16,124 0,66 -28,216 -28,283 0,107 69,154 119,154 18,0 45,-8 45,-63l0 -38c0,-191 77,-355 142,-355 24,0 41,22 41,55 0,69 -34,138 -34,228 0,85 34,173 148,173 41,0 72,-21 72,-44 0,-19 -61,-36 -61,-169 0,-63 33,-179 33,-255 0,-90 -64,-129 -127,-129 -84,0 -148,71 -194,152 -20,-84 -86,-138 -136,-138zm982 367c14,-52 26,-88 26,-146 0,-42 -19,-58 -39,-63 3,-11 5,-25 5,-40 0,-72 -69,-132 -162,-132 -167,0 -286,188 -286,376 0,161 110,219 197,219 58,0 100,-20 130,-53l0 31c0,122 -19,260 -106,260 -60,0 -85,-49 -85,-97 0,-30 10,-41 10,-47 0,-16 -30,-28 -63,-28 -47,0 -105,26 -105,108 0,90 91,147 202,147 243,0 290,-218 290,-381 0,-50 -7,-120 -14,-154zm-140 -69c0,11 2,43 3,92 -11,47 -48,75 -79,75 -65,0 -88,-78 -88,-155 0,-105 56,-230 116,-230 28,0 44,22 44,50 0,53 -19,71 -19,91 0,9 11,16 25,19 -2,15 -2,34 -2,58zm722 -205c56,0 69,43 80,108 1,9 7,14 18,14 47,0 105,-32 105,-97 0,-71 -67,-132 -178,-132 -144,0 -301,135 -301,340 0,145 83,260 248,260 173,0 222,-133 222,-173 0,-53 -28,-51 -28,-51 -11,0 -46,114 -155,114 -75,0 -127,-77 -127,-174 0,-125 56,-209 116,-209zm494 493c174,0 226,-135 226,-174 0,-52 -28,-50 -28,-50 -11,0 -47,113 -159,113 -70,0 -108,-57 -120,-122 127,-10 302,-58 302,-217 0,-106 -91,-150 -167,-150 -162,0 -299,154 -299,341 0,148 87,259 245,259zm30 -501c39,0 56,30 56,67 0,69 -87,118 -172,130 5,-116 66,-197 116,-197zm313 -85c-19,0 -36,7 -36,22 0,25 16,44 16,124 0,66 -28,216 -28,283 0,107 68,154 119,154 18,0 45,-8 45,-63l0 -38c0,-191 77,-355 142,-355 24,0 41,22 41,55 0,69 -34,138 -34,228 0,85 34,173 148,173 41,0 72,-21 72,-44 0,-19 -61,-36 -61,-169 0,-63 33,-179 33,-255 0,-90 -64,-129 -127,-129 -84,0 -148,71 -194,152 -20,-84 -86,-138 -136,-138zm535 32c-6,4 -12,11 -12,22 0,18 16,57 62,72 -9,67 -17,142 -17,225 0,136 58,232 185,232 95,0 141,-77 141,-116 0,-13 -5,-32 -19,-32 -12,0 -28,35 -72,35 -61,0 -81,-38 -81,-138 0,-64 6,-133 14,-194 92,0 175,-12 175,-84 0,-32 -12,-66 -33,-66 -8,0 -55,20 -123,34 14,-72 34,-116 34,-155 0,-36 -66,-92 -97,-92 -16,0 -25,14 -28,33 -14,84 -79,186 -129,224zm468 -32c-18,0 -36,7 -36,22 0,25 18,44 18,124 0,66 -30,216 -30,283 0,107 70,154 120,154 36,0 58,-22 58,-52 0,-13 -6,-69 -6,-114 0,-124 49,-285 113,-285 14,0 22,15 22,34 0,14 -8,28 -8,44 0,20 19,33 44,33 51,0 130,-45 130,-139 0,-72 -52,-118 -116,-118 -86,0 -143,72 -179,157 -15,-91 -76,-143 -130,-143zm681 586c174,0 226,-135 226,-174 0,-52 -29,-50 -29,-50 -11,0 -47,113 -158,113 -70,0 -108,-57 -120,-122 127,-10 302,-58 302,-217 0,-106 -91,-150 -168,-150 -161,0 -298,154 -298,341 0,148 87,259 245,259zm30 -501c39,0 56,30 56,67 0,69 -87,118 -172,130 5,-116 66,-197 116,-197z"/>
   <g>
    <path class="fil4" d="M12618 2697c-138,0 -251,103 -267,236 1,0 1,-1 2,-1l1 -1 0 0c1,-1 2,-1 4,-1l1 0 0 0 176 0 1 0 0 0c5,0 8,3 9,7l0 1 0 0 0 0 0 1 0 0 0 66 0 1 0 0 0 0c0,5 -4,9 -9,9l0 0 0 0 -1 0 -176 0c-2,0 -4,0 -5,-1 23,125 132,219 264,219 148,0 268,-120 268,-268 0,-148 -120,-268 -268,-268zm53 86c-33,0 -59,27 -59,59 0,33 26,59 59,59 32,0 59,-26 59,-59 0,-32 -27,-59 -59,-59z"/>
    <polygon class="fil4" points="12558,2935 11703,2976 11703,2976 12558,3010 "/>
   </g>
   <g>
    <path class="fil4" d="M3716 2697c137,0 251,103 266,236 -1,0 -1,-1 -2,-1l0 -1 0 0c-1,-1 -3,-1 -5,-1l0 0 -1 0 -176 0 -1 0 0 0c-5,0 -8,3 -9,7l0 1 0 0 0 0 0 1 0 0 0 66 0 1 0 0 0 0c0,5 4,9 9,9l0 0 0 0 1 0 176 0c2,0 4,0 6,-1 -24,125 -133,219 -264,219 -148,0 -269,-120 -269,-268 0,-148 121,-268 269,-268zm-54 86c33,0 59,27 59,59 0,33 -26,59 -59,59 -32,0 -58,-26 -58,-59 0,-32 26,-59 58,-59z"/>
    <polygon class="fil4" points="3776,2935 4630,2976 4630,2976 3776,3010 "/>
   </g>
  </g>
 </g>
</svg>
