<svg xmlns="http://www.w3.org/2000/svg" xmlns:xlink="http://www.w3.org/1999/xlink" width="1920" zoomAndPan="magnify" viewBox="0 0 1440 719.999996" height="960" preserveAspectRatio="xMidYMid meet" version="1.0"><defs><clipPath id="8012b76bcf"><path d="M 39.296875 338 L 311 338 L 311 494 L 39.296875 494 Z M 39.296875 338 " clip-rule="nonzero"/></clipPath><clipPath id="c405725591"><path d="M 178 173.71875 L 317 173.71875 L 317 403 L 178 403 Z M 178 173.71875 " clip-rule="nonzero"/></clipPath><clipPath id="1b190c6f50"><path d="M 373 174 L 1400.546875 174 L 1400.546875 384 L 373 384 Z M 373 174 " clip-rule="nonzero"/></clipPath><clipPath id="24334c0266"><path d="M 521 412 L 1254 412 L 1254 546.46875 L 521 546.46875 Z M 521 412 " clip-rule="nonzero"/></clipPath></defs><path fill="#ffffff" d="M 179.519531 505.199219 C 225.488281 505.199219 262.804688 508.742188 262.804688 513.019531 C 262.804688 517.394531 225.488281 520.941406 179.519531 520.941406 C 133.445312 520.941406 96.230469 517.394531 96.230469 513.019531 C 96.230469 508.742188 133.445312 505.199219 179.519531 505.199219 Z M 179.519531 505.199219 " fill-opacity="1" fill-rule="evenodd"/><path fill="#ffffff" d="M 132.300781 211.976562 C 105.40625 213.121094 70.277344 249.5 53.808594 293.074219 C 37.335938 336.75 45.78125 371.042969 72.675781 369.898438 C 99.566406 368.644531 134.695312 332.265625 151.167969 288.695312 C 167.636719 245.121094 159.191406 210.722656 132.300781 211.976562 Z M 124.898438 231.46875 C 104.675781 232.300781 78.199219 259.714844 65.792969 292.550781 C 53.390625 325.386719 59.75 351.34375 80.074219 350.40625 C 100.296875 349.464844 126.773438 322.050781 139.179688 289.214844 C 151.582031 256.378906 145.226562 230.53125 124.898438 231.46875 Z M 124.898438 231.46875 " fill-opacity="1" fill-rule="evenodd"/><path fill="#cc2528" d="M 115.101562 257.527344 C 103.738281 258.046875 88.832031 273.371094 81.953125 291.820312 C 74.96875 310.273438 78.511719 324.761719 89.875 324.242188 C 101.234375 323.71875 116.140625 308.394531 123.023438 289.945312 C 130.003906 271.601562 126.460938 257.007812 115.101562 257.527344 Z M 115.101562 257.527344 " fill-opacity="1" fill-rule="evenodd"/><g clip-path="url(#8012b76bcf)"><path fill="#ffffff" d="M 175.140625 338.3125 L 243.105469 377.195312 L 310.964844 416.074219 L 243.105469 455.0625 L 175.140625 493.941406 L 107.175781 455.0625 L 39.316406 416.074219 L 107.175781 377.195312 Z M 175.140625 338.3125 " fill-opacity="1" fill-rule="evenodd"/></g><g clip-path="url(#c405725591)"><path fill="#cc2528" d="M 314.300781 252.105469 L 315.34375 327.472656 L 316.386719 402.941406 L 248.421875 363.746094 L 180.457031 324.554688 L 179.3125 249.1875 L 178.269531 173.71875 L 246.335938 212.914062 Z M 314.300781 252.105469 " fill-opacity="1" fill-rule="evenodd"/></g><g clip-path="url(#1b190c6f50)"><path fill="#ffffff" d="M 397.171875 380.945312 L 405.300781 380.945312 C 421.457031 380.945312 429.902344 371.355469 429.902344 354.886719 L 429.902344 328.617188 L 451.6875 328.617188 C 502.871094 328.617188 529.972656 307.355469 529.972656 264.304688 C 529.972656 220.941406 501.722656 198.527344 450.019531 198.527344 L 402.175781 198.527344 C 383.722656 198.527344 373.71875 209.472656 373.71875 229.589844 L 373.71875 354.886719 C 373.71875 371.980469 382.367188 380.945312 397.171875 380.945312 Z M 429.066406 240.746094 L 448.664062 240.746094 C 466.28125 240.746094 475.453125 249.1875 475.453125 264.304688 C 475.453125 279.417969 466.488281 287.757812 449.5 287.757812 L 429.066406 287.757812 Z M 581.777344 382.300781 C 601.898438 382.300781 618.992188 373.960938 628.164062 359.683594 C 632.4375 374.484375 642.964844 381.988281 658.394531 381.988281 C 668.714844 381.988281 679.136719 378.652344 679.136719 375.839844 L 679.136719 297.035156 C 679.136719 257.320312 657.246094 238.035156 607.527344 238.035156 C 561.660156 238.035156 540.917969 251.691406 540.917969 273.476562 C 540.917969 297.242188 576.148438 295.367188 576.460938 294.53125 C 580.109375 286.089844 587.09375 276.082031 604.398438 276.082031 C 617.324219 276.082031 624.828125 282.441406 625.976562 294.53125 L 620.660156 294.53125 C 561.660156 294.742188 535.601562 309.855469 535.601562 341.441406 C 535.601562 365.519531 553.84375 382.300781 581.777344 382.300781 Z M 602.730469 349.570312 C 592.933594 349.570312 586.46875 344.878906 586.46875 336.75 C 586.46875 326.117188 597.933594 321.632812 619.511719 321.113281 L 626.183594 321.113281 L 626.183594 325.804688 C 626.183594 339.773438 617.011719 349.570312 602.730469 349.570312 Z M 770.242188 383.449219 C 812.460938 383.449219 829.242188 360.515625 829.242188 346.757812 C 829.242188 324.136719 801.617188 321.320312 800.785156 323.300781 C 796.617188 334.246094 787.339844 341.753906 773.371094 341.753906 C 756.273438 341.753906 744.496094 328.617188 744.496094 310.480469 C 744.496094 292.761719 756.585938 279.9375 773.371094 279.9375 C 788.484375 279.9375 796.617188 287.546875 800.785156 298.179688 C 801.617188 300.058594 829.242188 296.410156 829.242188 275.144531 C 829.242188 261.488281 814.230469 238.242188 770.242188 238.242188 C 726.878906 238.242188 696.441406 268.472656 696.441406 310.480469 C 696.441406 353.738281 726.046875 383.449219 770.242188 383.449219 Z M 870.105469 380.945312 L 875.734375 380.945312 C 889.386719 380.945312 899.5 374.171875 899.5 354.886719 L 899.5 322.15625 L 929.414062 365.519531 C 937.234375 377.609375 948.699219 381.78125 958.5 381.78125 C 974.449219 381.78125 989.5625 368.332031 988.101562 365.519531 L 947.34375 308.1875 L 984.558594 255.339844 C 985.914062 252.210938 971.632812 238.867188 955.476562 238.867188 C 946.199219 238.867188 934.730469 243.039062 927.226562 255.027344 L 899.5 296.722656 L 899.5 223.441406 C 899.5 190.710938 881.882812 182.578125 866.457031 182.578125 C 855.613281 182.578125 845.816406 186.851562 845.816406 188.730469 L 845.816406 354.886719 C 845.816406 374.796875 855.824219 380.945312 870.105469 380.945312 Z M 1026.773438 380.945312 L 1034.90625 380.945312 C 1051.0625 380.945312 1059.507812 371.355469 1059.507812 354.886719 L 1059.507812 328.617188 L 1081.292969 328.617188 C 1132.472656 328.617188 1159.574219 307.355469 1159.574219 264.304688 C 1159.574219 220.941406 1131.328125 198.527344 1079.625 198.527344 L 1031.777344 198.527344 C 1013.328125 198.527344 1003.21875 209.472656 1003.21875 229.589844 L 1003.21875 354.886719 C 1003.21875 371.980469 1011.972656 380.945312 1026.773438 380.945312 Z M 1058.671875 240.746094 L 1078.164062 240.746094 C 1095.886719 240.746094 1105.058594 249.1875 1105.058594 264.304688 C 1105.058594 279.417969 1096.09375 287.757812 1079.101562 287.757812 L 1058.671875 287.757812 Z M 1202.625 225.109375 C 1220.035156 225.109375 1230.875 215.3125 1230.875 199.675781 C 1230.875 184.039062 1219.722656 174.554688 1201.792969 174.554688 C 1184.488281 174.554688 1173.542969 184.246094 1173.542969 199.675781 C 1173.542969 215.3125 1184.800781 225.109375 1202.625 225.109375 Z M 1199.917969 380.945312 L 1205.441406 380.945312 C 1219.199219 380.945312 1229 374.171875 1229 354.886719 L 1229 265.136719 C 1229 245.226562 1219.410156 239.390625 1204.921875 239.390625 L 1199.292969 239.390625 C 1185.636719 239.390625 1175.316406 245.851562 1175.316406 265.136719 L 1175.316406 354.886719 C 1175.316406 374.796875 1185.324219 380.945312 1199.917969 380.945312 Z M 1275.074219 239.390625 C 1264.230469 239.390625 1254.433594 243.558594 1254.433594 245.539062 L 1254.433594 354.886719 C 1254.433594 374.796875 1264.441406 380.945312 1278.722656 380.945312 L 1284.351562 380.945312 C 1298.003906 380.945312 1308.117188 374.484375 1308.117188 354.886719 L 1308.117188 292.761719 C 1312.285156 286.089844 1319.582031 281.605469 1329.070312 281.605469 C 1340.328125 281.605469 1347 289.425781 1347 302.039062 L 1347 354.886719 C 1347 374.796875 1357.109375 380.945312 1371.597656 380.945312 L 1376.914062 380.945312 C 1390.882812 380.945312 1400.679688 374.171875 1400.679688 354.886719 L 1400.679688 292.761719 C 1400.679688 263.992188 1387.546875 238.035156 1351.480469 238.035156 C 1329.070312 238.035156 1315.621094 248.667969 1305.929688 263.46875 C 1300.820312 244.707031 1287.375 239.390625 1275.074219 239.390625 Z M 1275.074219 239.390625 " fill-opacity="1" fill-rule="nonzero"/></g><g clip-path="url(#24334c0266)"><path fill="#cc2528" d="M 550.820312 512.808594 C 566.457031 512.808594 578.546875 495.191406 578.546875 475.804688 C 578.546875 458.917969 569.164062 450.785156 559.886719 450.785156 C 550.402344 450.785156 544.042969 456.207031 539.664062 462.253906 C 537.371094 456.726562 532.054688 452.246094 527.261719 452.246094 C 525.800781 452.246094 524.96875 453.082031 524.96875 454.539062 C 524.96875 456.207031 526.425781 457.875 526.425781 465.378906 C 526.425781 508.535156 521.214844 520.3125 521.214844 533.867188 C 521.214844 540.847656 525.28125 546.269531 535.601562 546.269531 C 539.875 546.269531 541.75 544.289062 541.75 542.515625 C 541.75 540.847656 538.832031 540.222656 538.832031 526.359375 C 538.832031 519.480469 538.832031 514.894531 539.039062 509.371094 C 541.75 511.453125 545.710938 512.808594 550.820312 512.808594 Z M 544.253906 491.753906 C 544.253906 489.355469 544.253906 488.519531 542.585938 488.519531 C 542.273438 488.519531 541.644531 488.625 541.644531 488.625 C 543.3125 474.34375 549.152344 464.546875 555.71875 464.546875 C 561.035156 464.546875 563.222656 470.59375 563.222656 479.660156 C 563.222656 490.816406 558.117188 503.011719 550.609375 503.011719 C 547.171875 503.011719 544.253906 499.257812 544.253906 491.753906 Z M 634.835938 513.019531 C 638.378906 513.019531 641.613281 510.828125 641.613281 508.429688 C 641.613281 506.449219 633.480469 506.554688 633.480469 491.960938 C 633.480469 485.082031 634.941406 479.972656 634.941406 475.804688 C 634.941406 472.886719 634.105469 470.382812 631.394531 469.550781 C 632.230469 468.089844 632.648438 466.421875 632.648438 464.546875 C 632.648438 457.042969 625.976562 450.785156 615.34375 450.785156 C 597.414062 450.785156 584.59375 469.863281 584.59375 489.460938 C 584.59375 506.136719 595.015625 512.808594 604.085938 512.808594 C 611.488281 512.808594 617.011719 509.683594 620.449219 504.679688 C 622.535156 509.371094 626.914062 513.019531 634.835938 513.019531 Z M 608.671875 500.71875 C 603.980469 500.71875 600.332031 495.191406 600.332031 485.601562 C 600.332031 473.300781 606.378906 460.898438 613.257812 460.898438 C 616.386719 460.898438 617.84375 463.085938 617.84375 466.003906 C 617.84375 469.863281 617.011719 470.382812 617.011719 471.84375 C 617.011719 473.511719 618.15625 474.65625 619.929688 475.074219 C 619.097656 493.109375 614.71875 500.71875 608.671875 500.71875 Z M 672.777344 461.941406 C 678.722656 461.941406 679.972656 466.421875 681.117188 473.199219 C 681.328125 474.136719 681.953125 474.65625 683.097656 474.65625 C 688 474.65625 694.042969 471.320312 694.042969 464.546875 C 694.042969 457.144531 686.957031 450.785156 675.386719 450.785156 C 660.375 450.785156 644.113281 464.859375 644.113281 486.226562 C 644.113281 501.34375 652.765625 513.332031 669.859375 513.332031 C 688 513.332031 693 499.464844 693 495.296875 C 693 489.773438 690.082031 489.980469 690.082031 489.980469 C 688.9375 489.980469 685.390625 501.863281 673.925781 501.863281 C 666.109375 501.863281 660.6875 493.835938 660.6875 483.726562 C 660.6875 470.695312 666.628906 461.941406 672.777344 461.941406 Z M 741.785156 468.613281 C 741.785156 473.199219 737.617188 477.261719 732.402344 479.871094 C 728.441406 481.851562 727.503906 483.621094 727.503906 487.480469 C 727.503906 494.984375 734.488281 513.433594 748.144531 513.433594 C 756.378906 513.433594 761.902344 505.929688 761.902344 501.863281 C 761.902344 499.570312 761.277344 498.738281 760.234375 498.738281 C 759.820312 498.738281 758.984375 499.257812 757.628906 499.257812 C 751.167969 499.257812 744.078125 489.773438 741.992188 482.996094 C 748.976562 479.558594 756.484375 471.320312 756.484375 462.566406 C 756.484375 453.394531 750.957031 450.160156 744.601562 450.160156 C 734.28125 450.160156 722.398438 462.355469 715.203125 481.015625 C 718.019531 461.210938 724.167969 441.824219 724.167969 427.855469 C 724.167969 418.992188 718.851562 412.84375 707.074219 412.84375 C 703.84375 412.84375 701.863281 413.886719 701.863281 415.761719 C 701.863281 418.367188 704.988281 423.371094 704.988281 440.363281 C 704.988281 463.085938 700.820312 481.953125 700.820312 496.027344 C 700.820312 508.117188 708.53125 513.019531 713.746094 513.019531 C 717.808594 513.019531 718.851562 511.035156 719.269531 504.46875 C 720.730469 483.308594 730.214844 464.859375 738.03125 464.859375 C 740.222656 464.859375 741.785156 466.421875 741.785156 468.613281 Z M 792.238281 433.171875 C 792.238281 427.019531 787.964844 423.371094 782.335938 423.371094 C 775.140625 423.371094 770.347656 429.417969 770.347656 436.089844 C 770.347656 440.882812 772.953125 444.742188 779.832031 444.742188 C 785.878906 444.742188 792.238281 440.050781 792.238281 433.171875 Z M 768.785156 490.816406 C 768.785156 506.761719 775.246094 513.019531 784.417969 513.019531 C 788.796875 513.019531 792.027344 510.828125 792.027344 508.429688 C 792.027344 505.304688 784.730469 507.074219 784.730469 491.753906 C 784.730469 483.414062 788.171875 469.132812 788.171875 463.085938 C 788.171875 457.980469 784.417969 450.785156 773.785156 450.785156 C 770.554688 450.785156 768.261719 451.933594 768.261719 453.601562 C 768.261719 454.746094 770.554688 455.6875 770.554688 464.859375 C 770.554688 471.007812 768.785156 484.558594 768.785156 490.816406 Z M 803.808594 452.246094 C 801.828125 452.246094 800.054688 452.976562 800.054688 454.539062 C 800.054688 457.144531 801.722656 459.125 801.722656 467.464844 C 801.722656 474.34375 798.804688 489.980469 798.804688 496.964844 C 798.804688 508.117188 805.996094 513.019531 811.207031 513.019531 C 813.085938 513.019531 815.898438 512.183594 815.898438 506.449219 L 815.898438 502.488281 C 815.898438 482.578125 823.925781 465.484375 830.703125 465.484375 C 833.203125 465.484375 834.976562 467.777344 834.976562 471.21875 C 834.976562 478.410156 831.429688 485.601562 831.429688 494.984375 C 831.429688 503.84375 834.976562 513.019531 846.859375 513.019531 C 851.132812 513.019531 854.363281 510.828125 854.363281 508.429688 C 854.363281 506.449219 848.003906 504.679688 848.003906 490.816406 C 848.003906 484.246094 851.445312 472.15625 851.445312 464.234375 C 851.445312 454.851562 844.773438 450.785156 838.207031 450.785156 C 829.449219 450.785156 822.78125 458.1875 817.984375 466.632812 C 815.898438 457.875 809.019531 452.246094 803.808594 452.246094 Z M 906.171875 490.503906 C 907.628906 485.082031 908.878906 481.328125 908.878906 475.28125 C 908.878906 470.90625 906.898438 469.238281 904.816406 468.714844 C 905.128906 467.570312 905.335938 466.109375 905.335938 464.546875 C 905.335938 457.042969 898.144531 450.785156 888.449219 450.785156 C 871.042969 450.785156 858.636719 470.382812 858.636719 489.980469 C 858.636719 506.761719 870.105469 512.808594 879.171875 512.808594 C 885.21875 512.808594 889.597656 510.722656 892.722656 507.285156 L 892.722656 510.515625 C 892.722656 523.234375 890.742188 537.617188 881.675781 537.617188 C 875.421875 537.617188 872.8125 532.511719 872.8125 527.507812 C 872.8125 524.378906 873.855469 523.234375 873.855469 522.609375 C 873.855469 520.941406 870.730469 519.6875 867.289062 519.6875 C 862.390625 519.6875 856.34375 522.398438 856.34375 530.945312 C 856.34375 540.328125 865.832031 546.269531 877.402344 546.269531 C 902.730469 546.269531 907.628906 523.546875 907.628906 506.554688 C 907.628906 501.34375 906.898438 494.046875 906.171875 490.503906 Z M 891.578125 483.308594 C 891.578125 484.457031 891.785156 487.792969 891.890625 492.898438 C 890.742188 497.796875 886.886719 500.71875 883.65625 500.71875 C 876.878906 500.71875 874.480469 492.585938 874.480469 484.558594 C 874.480469 473.617188 880.320312 460.585938 886.574219 460.585938 C 889.492188 460.585938 891.160156 462.878906 891.160156 465.796875 C 891.160156 471.320312 889.179688 473.199219 889.179688 475.28125 C 889.179688 476.222656 890.328125 476.949219 891.785156 477.261719 C 891.578125 478.828125 891.578125 480.808594 891.578125 483.308594 Z M 966.835938 461.941406 C 972.675781 461.941406 974.03125 466.421875 975.175781 473.199219 C 975.28125 474.136719 975.90625 474.65625 977.054688 474.65625 C 981.953125 474.65625 988 471.320312 988 464.546875 C 988 457.144531 981.015625 450.785156 969.445312 450.785156 C 954.433594 450.785156 938.066406 464.859375 938.066406 486.226562 C 938.066406 501.34375 946.71875 513.332031 963.917969 513.332031 C 981.953125 513.332031 987.058594 499.464844 987.058594 495.296875 C 987.058594 489.773438 984.140625 489.980469 984.140625 489.980469 C 982.996094 489.980469 979.347656 501.863281 967.984375 501.863281 C 960.167969 501.863281 954.746094 493.835938 954.746094 483.726562 C 954.746094 470.695312 960.582031 461.941406 966.835938 461.941406 Z M 1018.332031 513.332031 C 1036.46875 513.332031 1041.890625 499.257812 1041.890625 495.191406 C 1041.890625 489.773438 1038.972656 489.980469 1038.972656 489.980469 C 1037.824219 489.980469 1034.070312 501.761719 1022.398438 501.761719 C 1015.101562 501.761719 1011.140625 495.816406 1009.886719 489.042969 C 1023.128906 488 1041.367188 482.996094 1041.367188 466.421875 C 1041.367188 455.375 1031.882812 450.785156 1023.960938 450.785156 C 1007.074219 450.785156 992.792969 466.839844 992.792969 486.332031 C 992.792969 501.761719 1001.863281 513.332031 1018.332031 513.332031 Z M 1021.460938 461.105469 C 1025.523438 461.105469 1027.296875 464.234375 1027.296875 468.089844 C 1027.296875 475.28125 1018.226562 480.390625 1009.367188 481.640625 C 1009.886719 469.550781 1016.246094 461.105469 1021.460938 461.105469 Z M 1054.085938 452.246094 C 1052.105469 452.246094 1050.332031 452.976562 1050.332031 454.539062 C 1050.332031 457.144531 1052 459.125 1052 467.464844 C 1052 474.34375 1049.082031 489.980469 1049.082031 496.964844 C 1049.082031 508.117188 1056.171875 513.019531 1061.488281 513.019531 C 1063.363281 513.019531 1066.179688 512.183594 1066.179688 506.449219 L 1066.179688 502.488281 C 1066.179688 482.578125 1074.203125 465.484375 1080.980469 465.484375 C 1083.480469 465.484375 1085.253906 467.777344 1085.253906 471.21875 C 1085.253906 478.410156 1081.710938 485.601562 1081.710938 494.984375 C 1081.710938 503.84375 1085.253906 513.019531 1097.136719 513.019531 C 1101.410156 513.019531 1104.640625 510.828125 1104.640625 508.429688 C 1104.640625 506.449219 1098.285156 504.679688 1098.285156 490.816406 C 1098.285156 484.246094 1101.722656 472.15625 1101.722656 464.234375 C 1101.722656 454.851562 1095.050781 450.785156 1088.484375 450.785156 C 1079.730469 450.785156 1073.058594 458.1875 1068.261719 466.632812 C 1066.179688 457.875 1059.296875 452.246094 1054.085938 452.246094 Z M 1109.855469 455.582031 C 1109.230469 456 1108.601562 456.726562 1108.601562 457.875 C 1108.601562 459.75 1110.269531 463.816406 1115.066406 465.378906 C 1114.128906 472.363281 1113.292969 480.183594 1113.292969 488.835938 C 1113.292969 503.011719 1119.339844 513.019531 1132.578125 513.019531 C 1142.480469 513.019531 1147.277344 504.992188 1147.277344 500.925781 C 1147.277344 499.570312 1146.753906 497.589844 1145.296875 497.589844 C 1144.042969 497.589844 1142.375 501.238281 1137.789062 501.238281 C 1131.429688 501.238281 1129.347656 497.277344 1129.347656 486.855469 C 1129.347656 480.183594 1129.972656 472.988281 1130.804688 466.632812 C 1140.394531 466.632812 1149.046875 465.378906 1149.046875 457.875 C 1149.046875 454.539062 1147.796875 450.996094 1145.609375 450.996094 C 1144.773438 450.996094 1139.875 453.082031 1132.785156 454.539062 C 1134.246094 447.035156 1136.332031 442.449219 1136.332031 438.382812 C 1136.332031 434.628906 1129.449219 428.792969 1126.21875 428.792969 C 1124.550781 428.792969 1123.613281 430.25 1123.300781 432.230469 C 1121.839844 440.988281 1115.066406 451.621094 1109.855469 455.582031 Z M 1158.636719 452.246094 C 1156.761719 452.246094 1154.886719 452.976562 1154.886719 454.539062 C 1154.886719 457.144531 1156.761719 459.125 1156.761719 467.464844 C 1156.761719 474.34375 1153.632812 489.980469 1153.632812 496.964844 C 1153.632812 508.117188 1160.929688 513.019531 1166.144531 513.019531 C 1169.894531 513.019531 1172.1875 510.722656 1172.1875 507.597656 C 1172.1875 506.242188 1171.5625 500.40625 1171.5625 495.714844 C 1171.5625 482.789062 1176.671875 466.003906 1183.34375 466.003906 C 1184.800781 466.003906 1185.636719 467.570312 1185.636719 469.550781 C 1185.636719 471.007812 1184.800781 472.46875 1184.800781 474.136719 C 1184.800781 476.222656 1186.78125 477.578125 1189.386719 477.578125 C 1194.703125 477.578125 1202.941406 472.886719 1202.941406 463.085938 C 1202.941406 455.582031 1197.519531 450.785156 1190.847656 450.785156 C 1181.882812 450.785156 1175.941406 458.292969 1172.1875 467.152344 C 1170.625 457.667969 1164.265625 452.246094 1158.636719 452.246094 Z M 1229.625 513.332031 C 1247.761719 513.332031 1253.183594 499.257812 1253.183594 495.191406 C 1253.183594 489.773438 1250.160156 489.980469 1250.160156 489.980469 C 1249.011719 489.980469 1245.261719 501.761719 1233.691406 501.761719 C 1226.394531 501.761719 1222.433594 495.816406 1221.179688 489.042969 C 1234.417969 488 1252.660156 482.996094 1252.660156 466.421875 C 1252.660156 455.375 1243.175781 450.785156 1235.148438 450.785156 C 1218.367188 450.785156 1204.085938 466.839844 1204.085938 486.332031 C 1204.085938 501.761719 1213.15625 513.332031 1229.625 513.332031 Z M 1232.75 461.105469 C 1236.816406 461.105469 1238.589844 464.234375 1238.589844 468.089844 C 1238.589844 475.28125 1229.519531 480.390625 1220.660156 481.640625 C 1221.179688 469.550781 1227.539062 461.105469 1232.75 461.105469 Z M 1232.75 461.105469 " fill-opacity="1" fill-rule="nonzero"/></g><path fill="#ffffff" d="M 1354.609375 454.851562 C 1340.222656 454.851562 1328.445312 465.589844 1326.777344 479.453125 C 1326.878906 479.453125 1326.878906 479.347656 1326.984375 479.347656 L 1327.089844 479.246094 C 1327.191406 479.140625 1327.296875 479.140625 1327.503906 479.140625 L 1346.058594 479.140625 C 1346.582031 479.140625 1346.894531 479.453125 1347 479.871094 L 1347 487.0625 C 1347 487.582031 1346.582031 488 1346.058594 488 L 1327.609375 488 C 1327.402344 488 1327.191406 488 1327.089844 487.894531 C 1329.484375 500.925781 1340.847656 510.722656 1354.609375 510.722656 C 1370.035156 510.722656 1382.542969 498.214844 1382.542969 482.789062 C 1382.542969 467.359375 1370.035156 454.851562 1354.609375 454.851562 Z M 1360.132812 463.816406 C 1356.691406 463.816406 1353.980469 466.632812 1353.980469 469.96875 C 1353.980469 473.40625 1356.691406 476.117188 1360.132812 476.117188 C 1363.46875 476.117188 1366.28125 473.40625 1366.28125 469.96875 C 1366.28125 466.632812 1363.46875 463.816406 1360.132812 463.816406 Z M 1360.132812 463.816406 " fill-opacity="1" fill-rule="evenodd"/><path fill="#ffffff" d="M 1348.351562 479.660156 L 1259.230469 483.933594 L 1348.351562 487.480469 Z M 1348.351562 479.660156 " fill-opacity="1" fill-rule="evenodd"/><path fill="#ffffff" d="M 426.671875 454.851562 C 440.953125 454.851562 452.835938 465.589844 454.398438 479.453125 C 454.292969 479.453125 454.292969 479.347656 454.191406 479.347656 L 454.191406 479.246094 C 454.085938 479.140625 453.875 479.140625 453.667969 479.140625 L 435.113281 479.140625 C 434.59375 479.140625 434.28125 479.453125 434.175781 479.871094 L 434.175781 487.0625 C 434.175781 487.582031 434.59375 488 435.113281 488 L 453.5625 488 C 453.773438 488 453.980469 488 454.191406 487.894531 C 451.6875 500.925781 440.324219 510.722656 426.671875 510.722656 C 411.242188 510.722656 398.628906 498.214844 398.628906 482.789062 C 398.628906 467.359375 411.242188 454.851562 426.671875 454.851562 Z M 421.042969 463.816406 C 424.480469 463.816406 427.191406 466.632812 427.191406 469.96875 C 427.191406 473.40625 424.480469 476.117188 421.042969 476.117188 C 417.707031 476.117188 414.996094 473.40625 414.996094 469.96875 C 414.996094 466.632812 417.707031 463.816406 421.042969 463.816406 Z M 421.042969 463.816406 " fill-opacity="1" fill-rule="evenodd"/><path fill="#ffffff" d="M 432.925781 479.660156 L 521.945312 483.933594 L 432.925781 487.480469 Z M 432.925781 479.660156 " fill-opacity="1" fill-rule="evenodd"/></svg>