<?xml version="1.0" encoding="UTF-8"?>
<!DOCTYPE svg PUBLIC "-//W3C//DTD SVG 1.1//EN" "http://www.w3.org/Graphics/SVG/1.1/DTD/svg11.dtd">
<!-- Creator: CorelDRAW X7 -->
<svg xmlns="http://www.w3.org/2000/svg" xml:space="preserve" width="91.2475mm" height="138.093mm" version="1.1" style="shape-rendering:geometricPrecision; text-rendering:geometricPrecision; image-rendering:optimizeQuality; fill-rule:evenodd; clip-rule:evenodd"
viewBox="0 0 8192 12398"
 xmlns:xlink="http://www.w3.org/1999/xlink">
 <defs>
  <style type="text/css">
   <![CDATA[
    .fil1 {fill:#016EB2}
    .fil0 {fill:#2F284C}
   ]]>
  </style>
 </defs>
 <g id="Layer_x0020_1">
  <metadata id="CorelCorpID_0Corel-Layer"/>
  <g id="_2314277085888">
   <path class="fil0" d="M4718 6693c-183,219 -439,475 -658,695l0 0 -1061 -1061 -146 -183 -951 -951 -366 -365 256 -256 549 -549 292 -293 147 -146 1280 -1353 36 37 366 365 878 878 256 256 1060 1024 1098 1097c256,-292 438,-695 438,-1134 0,-402 -146,-767 -402,-1060l0 -37 -256 -219 -366 -366c-146,-146 -292,-293 -402,-402l-36 -37 -1134 -1134 -366 -365 -1134 -1134 -36 37c-220,292 -622,658 -1061,1060l-36 37 -330 329 -1133 1134 -293 292 -512 512c-73,110 -183,220 -256,366l0 0c-37,37 -73,73 -110,110 -36,73 -73,183 -146,256 0,36 -36,109 -73,146 -73,183 -110,402 -110,622 0,109 0,219 37,329 256,878 1207,1609 1865,2231l1024 1060 220 220 914 878 0 0 256 -256 548 -549 183 -183 147 -110 256 -292 548 -549 -914 -914 -183 -220c-37,37 -73,73 -110,110l-73 37 0 0z"/>
   <path class="fil1" d="M5376 6327l915 915 365 365 -36 73c0,0 0,0 -37,0l-219 220 -549 549 -256 292 -183 146 -110 147 -585 548c-110,146 -439,439 -621,512 0,0 -256,-292 -293,-329l-841 -841 -293 -293 -1024 -1024 -1097 -1060c-329,292 -512,731 -512,1207 0,548 110,621 475,987l586 585 438 439 1134 1134 366 366 1061 1060 73 73 1133 -1133 293 -293 256 -256 549 -549 329 -329 256 -256 548 -548c403,-403 695,-878 695,-1427 0,-183 -37,-402 -110,-548 -73,-183 -182,-366 -329,-549 0,0 0,-37 0,-37 -109,-146 -183,-219 -329,-365l-36 -73 -1098 -1061 -1024 -1024 -219 -219 -915 -915 -73 73 -950 951 -110 110 -293 292 -548 549 914 914 219 220 549 -549 220 -256 73 -36 1060 1024 183 219 0 0z"/>
  </g>
 </g>
</svg>
