<?xml version="1.0" encoding="UTF-8"?>
<!DOCTYPE svg PUBLIC "-//W3C//DTD SVG 1.1//EN" "http://www.w3.org/Graphics/SVG/1.1/DTD/svg11.dtd">
<!-- Creator: CorelDRAW X7 -->
<svg xmlns="http://www.w3.org/2000/svg" xml:space="preserve" width="43.5329mm" height="9.8374mm" version="1.1" style="shape-rendering:geometricPrecision; text-rendering:geometricPrecision; image-rendering:optimizeQuality; fill-rule:evenodd; clip-rule:evenodd"
viewBox="0 0 1546 349"
 xmlns:xlink="http://www.w3.org/1999/xlink">
 <defs>
  <style type="text/css">
   <![CDATA[
    .fil5 {fill:#016EB2}
    .fil4 {fill:#2F284C}
    .fil3 {fill:#E31E2A;fill-rule:nonzero}
    .fil1 {fill:#005E99;fill-rule:nonzero}
    .fil0 {fill:#2D2556;fill-rule:nonzero}
    .fil2 {fill:#05629C;fill-rule:nonzero}
   ]]>
  </style>
 </defs>
 <g id="Layer_x0020_1">
  <metadata id="CorelCorpID_0Corel-Layer"/>
  <g id="_2450912549472">
   <path class="fil0" d="M312 10l52 0c18,0 33,4 44,12 12,9 20,19 25,31 5,12 8,26 7,40 -1,14 -4,27 -10,40 -6,12 -15,22 -26,30 -11,8 -25,12 -40,12 -12,0 -21,-2 -28,-6 -6,-3 -11,-8 -13,-14 -2,-5 -3,-11 -1,-17 1,-6 3,-11 6,-16 1,3 3,5 6,6 3,1 7,2 11,3 4,1 8,1 11,1 4,0 7,0 10,-1 6,-1 11,-3 16,-8 4,-4 7,-9 9,-15 2,-5 3,-11 3,-18 0,-6 -1,-12 -3,-17 -3,-6 -7,-10 -13,-14 -5,-3 -12,-5 -21,-5l-37 0 0 192 -45 0 0 -195c0,-12 3,-22 8,-30 6,-7 16,-11 29,-11z"/>
   <path class="fil0" d="M467 71l38 0 0 22c3,-8 8,-14 14,-19 6,-4 13,-7 20,-7 9,-1 17,1 23,5 5,4 10,9 12,15 2,6 3,12 2,18 -1,6 -4,11 -9,15 -2,-6 -6,-9 -12,-11 -6,-2 -12,-1 -18,1 -6,2 -12,6 -17,12 -5,5 -8,13 -9,22 0,6 0,11 0,16 0,6 0,11 0,15l0 71 -44 0 0 -175z"/>
   <path class="fil0" d="M601 107c0,-7 1,-13 4,-17 2,-4 5,-8 9,-11 4,-2 8,-4 13,-6 5,-1 11,-1 17,-1l0 174 -43 0 0 -139zm21 -107c8,0 15,3 20,8 5,6 8,12 8,20 0,8 -2,15 -8,20 -3,4 -7,6 -11,7 -4,1 -8,2 -12,4 -4,1 -8,2 -12,4 -3,2 -5,4 -7,8 -1,-3 -2,-8 -3,-14 -2,-5 -2,-11 -3,-17 0,-6 0,-12 1,-18 1,-5 4,-10 8,-14 5,-5 12,-8 19,-8z"/>
   <path class="fil0" d="M727 92c2,-4 5,-8 8,-11 4,-3 8,-5 13,-7 4,-2 9,-4 13,-5 5,-1 10,-2 14,-2 8,0 16,1 25,4 8,3 16,7 23,14 10,11 15,26 15,46l0 115 -43 0c0,-4 0,-9 0,-16 0,-6 0,-14 0,-21 0,-8 0,-16 0,-24 0,-9 0,-16 0,-24 0,-7 -1,-14 -1,-20 -1,-5 -1,-10 -2,-12 -2,-8 -5,-13 -10,-16 -5,-4 -11,-6 -16,-6 -8,0 -14,2 -18,6 -5,5 -7,10 -7,17 -2,-1 -5,-3 -8,-6 -2,-3 -4,-6 -6,-9l0 9 0 122 -43 0 0 -174 43 0 0 20z"/>
   <path class="fil0" d="M890 45c0,-7 1,-12 3,-16 3,-5 6,-8 10,-11 4,-3 8,-5 13,-6 5,-1 11,-2 16,-2l0 63 39 0c0,4 0,9 -1,13 -1,4 -2,8 -5,12 -2,3 -5,6 -9,8 -4,2 -8,3 -15,3l-9 0 0 95c0,4 1,6 4,8 3,1 6,2 9,2 4,0 8,-1 11,-3 4,-1 6,-3 8,-6 3,7 3,14 0,20 -2,5 -6,10 -12,13 -5,4 -11,6 -19,7 -7,1 -14,0 -20,-2 -7,-2 -12,-6 -17,-11 -4,-6 -6,-13 -6,-22l0 -101 -22 0 0 -36 22 0 0 -28z"/>
   <path class="fil1" d="M1040 10l0 236 -43 0 0 -201c0,-11 4,-20 12,-26 7,-6 18,-9 31,-9z"/>
   <path class="fil2" d="M1135 311c-11,0 -21,-2 -30,-5 -9,-3 -17,-7 -23,-13 -6,-5 -10,-13 -12,-21 -3,-9 -2,-19 1,-30 3,4 7,9 11,12 4,4 9,7 15,10 5,2 11,4 16,5 6,1 12,2 18,2 16,-1 28,-5 36,-13 9,-8 13,-20 13,-36 -1,4 -4,8 -8,11 -4,3 -8,6 -13,8 -4,2 -9,4 -14,5 -5,1 -9,2 -13,2 -9,0 -17,-1 -26,-3 -8,-3 -15,-8 -22,-15 -10,-10 -15,-25 -15,-45l0 -114 42 0c0,4 0,9 0,15 0,7 0,14 0,22 0,7 0,15 0,23 0,9 0,16 0,24 1,7 1,14 1,19 1,6 1,10 2,13 2,7 5,13 10,16 5,4 10,6 16,6 4,0 8,-1 11,-2 3,-1 6,-3 9,-5 2,-3 5,-5 6,-8 2,-3 2,-6 2,-9 6,1 10,5 12,11l0 -125 44 0 0 153c0,27 -8,48 -23,63 -15,16 -37,24 -66,24z"/>
   <path class="fil1" d="M1276 45c0,-7 1,-12 4,-16 2,-5 5,-8 9,-11 4,-3 8,-5 14,-6 5,-1 10,-2 15,-2l0 63 39 0c0,4 0,9 -1,13 -1,4 -2,8 -4,12 -3,3 -6,6 -10,8 -3,2 -8,3 -14,3l-10 0 0 95c0,4 2,6 4,8 3,1 6,2 10,2 3,0 7,-1 10,-3 4,-1 7,-3 8,-6 3,7 3,14 1,20 -3,5 -7,10 -12,13 -6,4 -12,6 -20,7 -7,1 -14,0 -20,-2 -6,-2 -12,-6 -16,-11 -5,-6 -7,-13 -7,-22l0 -101 -22 0 0 -36 22 0 0 -28z"/>
   <path class="fil1" d="M1502 178c-12,3 -23,5 -33,4 -10,-1 -18,-4 -24,-8 -7,-3 -11,-9 -13,-15 -2,-7 -2,-14 2,-23 7,6 15,9 24,10 9,1 18,0 26,-1 8,0 13,-2 17,-4 3,-3 6,-6 7,-9 1,-3 0,-6 -1,-10 -2,-4 -4,-7 -8,-10 -3,-3 -8,-5 -13,-7 -5,-2 -10,-2 -16,-2 -7,0 -13,2 -19,4 -6,3 -11,7 -15,12 -5,4 -8,10 -11,16 -3,6 -4,13 -4,21 -1,6 0,12 2,18 2,6 4,12 7,17 4,5 8,9 12,13 5,3 11,5 17,6 8,2 17,1 26,-1 9,-3 17,-8 24,-15l35 17c-9,14 -20,23 -33,29 -12,6 -27,9 -43,9 -15,0 -28,-2 -39,-8 -11,-5 -21,-12 -28,-21 -8,-8 -13,-18 -17,-29 -4,-11 -6,-23 -5,-34 0,-12 2,-23 6,-34 5,-11 11,-21 19,-30 9,-9 19,-16 31,-20 12,-4 25,-6 37,-6 14,0 26,2 36,7 10,5 18,11 25,18 6,7 10,15 12,24 2,9 2,17 -1,26 -2,8 -7,15 -14,22 -6,7 -16,11 -28,14z"/>
   <path class="fil3" d="M269 285l0 64 9 0 0 -42c0,-11 6,-24 19,-24 11,0 17,9 17,19 0,10 -7,19 -19,19 -5,0 -10,-1 -13,-5 -1,1 -1,2 -1,4 0,5 6,10 16,10 14,0 26,-12 26,-28 0,-17 -13,-27 -26,-27 0,0 -14,0 -19,11l0 -10c-5,0 -9,4 -9,9zm67 43l9 0 0 -30c0,-8 5,-15 14,-15 2,0 5,1 6,4 1,-1 2,-2 2,-4 -1,-5 -6,-8 -10,-8 -6,0 -10,4 -12,8l0 -7 -9 0 0 52zm47 0l0 -52c0,0 0,0 0,0 -5,0 -9,4 -9,9l0 43 9 0zm-10 -63c0,2 0,4 1,6 1,-1 2,-1 3,-1 4,-1 7,-2 7,-6 0,-4 -2,-6 -6,-6 -3,0 -5,3 -5,7zm26 63l9 0 0 -38c1,1 1,1 1,2 0,0 1,1 2,1 0,-1 0,-3 1,-4 2,-3 6,-5 11,-5 8,0 12,5 12,12l0 32 10 0 0 -34c0,-11 -9,-18 -20,-18 -7,0 -14,3 -17,7l0 -7 -9 0 0 52zm56 -52l0 7 7 0 0 36c0,7 6,10 11,10 8,0 11,-7 11,-9 0,0 0,-1 0,-1 -2,2 -4,2 -6,2 -3,0 -6,-1 -6,-6l0 -32 5 0c5,0 7,-3 7,-7l-12 0 0 -12c-5,0 -10,3 -10,8l0 4 -7 0zm63 0l0 52 9 0 0 -38c0,1 1,3 3,3 0,0 0,-1 0,-1 0,-4 4,-8 11,-8 9,0 12,5 12,12l0 32 10 0 0 -34c0,-4 5,-10 14,-10 8,0 12,5 12,12l0 32 10 0 0 -34c0,-11 -9,-18 -21,-18 -8,0 -15,4 -18,9 -3,-6 -10,-9 -17,-9 -7,0 -14,3 -16,8l0 -8 -9 0zm93 26c0,16 11,27 25,27 11,0 18,-6 20,-12l0 11 10 0 0 -52 -10 0 0 23c0,12 -6,22 -18,22 -10,0 -18,-7 -18,-19 1,-12 8,-19 20,-19 12,0 13,8 13,9 1,-2 1,-3 1,-5 0,-6 -6,-12 -16,-12 -17,0 -27,12 -27,27zm67 1c0,17 12,26 24,26 10,0 16,-3 20,-10l0 9 9 0 0 -61c0,-5 -2,-9 -8,-9 0,0 0,0 -1,0l0 40c0,11 -4,23 -18,23 -11,0 -17,-8 -17,-17 0,-10 5,-20 17,-20 6,0 13,2 15,7 0,-2 1,-3 1,-5 0,-4 -6,-10 -18,-10 -12,0 -24,12 -24,27zm95 -28c-17,0 -29,11 -29,27 0,16 12,28 28,28 7,0 13,-3 18,-7l-5 -6c-4,3 -9,4 -14,4 -10,0 -17,-7 -17,-19 0,-11 7,-18 19,-18 10,0 14,4 14,8 0,7 -8,11 -17,11 -8,0 -12,-2 -14,-5 0,0 -1,2 -1,3 0,5 6,9 15,9 15,0 24,-7 24,-18 0,-9 -8,-17 -21,-17zm83 0c-16,0 -28,11 -28,27 0,16 11,28 28,28 7,0 13,-3 17,-7l-5 -6c-4,3 -9,4 -13,4 -10,0 -18,-7 -18,-19 0,-11 8,-18 20,-18 10,0 13,4 13,8 0,7 -7,11 -16,11 -8,0 -13,-2 -14,-5 0,0 -1,2 -1,3 0,5 5,9 15,9 14,0 24,-7 24,-18 0,-9 -9,-17 -22,-17zm33 27c0,16 11,27 25,27 10,0 18,-6 20,-12l0 11 9 0 0 -52 -9 0 0 23c0,12 -7,22 -19,22 -10,0 -17,-7 -17,-19 0,-12 7,-19 19,-19 12,0 13,8 13,9 1,-2 2,-3 2,-5 0,-6 -7,-12 -17,-12 -16,0 -26,12 -26,27zm66 20c5,5 11,8 17,8 9,0 18,-6 18,-16 0,-16 -25,-15 -25,-25 0,-5 5,-6 8,-6 6,0 9,3 10,5 2,-2 3,-3 3,-5 -1,-6 -7,-8 -13,-8 -9,0 -16,5 -16,14 0,14 24,16 24,25 0,5 -3,8 -8,8 -4,0 -8,-2 -12,-6l-6 6zm83 -8c0,-2 -2,-3 -2,-3 0,6 -5,10 -13,10 -8,0 -12,-6 -12,-13l0 -32c0,0 -1,0 -2,0 -5,0 -7,3 -7,7l0 28c0,10 9,18 20,18 7,0 14,-3 16,-8 0,13 -7,20 -19,20 -6,0 -12,-3 -16,-8 0,0 -1,1 -1,3 0,9 8,13 19,13 17,0 26,-10 26,-26l0 -47 -9 0 0 38z"/>
   <g>
    <path class="fil4" d="M129 188c-5,6 -12,13 -18,19l0 0 -29 -29 -4 -5 -26 -26 -10 -10 7 -7 15 -15 8 -8 4 -4 35 -37 1 1 10 10 24 24 7 7 29 28 30 30c7,-8 12,-19 12,-31 0,-11 -4,-21 -11,-29l0 -1 -7 -6 -10 -10c-4,-4 -8,-8 -11,-11l-1 -1 -31 -31 -10 -10 -31 -31 -1 1c-6,8 -17,18 -29,29l-1 1 -9 9 -31 31 -8 8 -14 14c-2,3 -5,6 -7,10l0 0c-1,1 -2,2 -3,3 -1,2 -2,5 -4,7 0,1 -1,3 -2,4 -2,5 -3,11 -3,17 0,3 0,6 1,9 7,24 33,44 51,61l28 29 6 6 25 24 0 0 7 -7 15 -15 5 -5 4 -3 7 -8 15 -15 -25 -25 -5 -6c-1,1 -2,2 -3,3l-2 1z"/>
    <path class="fil5" d="M147 178l25 25 10 10 -1 2c0,0 0,0 -1,0l-6 6 -15 15 -7 8 -5 4 -3 4 -16 15c-3,4 -12,12 -17,14 0,0 -7,-8 -8,-9l-23 -23 -8 -8 -28 -28 -30 -29c-9,8 -14,20 -14,33 0,15 3,17 13,27l16 16 12 12 31 31 10 10 29 29 2 2 31 -31 8 -8 7 -7 15 -15 9 -9 7 -7 15 -15c11,-11 19,-24 19,-39 0,-5 -1,-11 -3,-15 -2,-5 -5,-10 -9,-15 0,0 0,-1 0,-1 -3,-4 -5,-6 -9,-10l-1 -2 -30 -29 -28 -28 -6 -6 -25 -25 -2 2 -26 26 -3 3 -8 8 -15 15 25 25 6 6 15 -15 6 -7 2 -1 29 28 5 6z"/>
   </g>
  </g>
 </g>
</svg>
